<?xml version="1.0" encoding="UTF-8"?>
<svg width="37px" height="15px" viewBox="0 0 37 15" version="1.1" xmlns="http://www.w3.org/2000/svg" xmlns:xlink="http://www.w3.org/1999/xlink">
    <!-- Generator: Sketch 50.2 (55047) - http://www.bohemiancoding.com/sketch -->
    <title>Shape</title>
    <desc>Created with Sketch.</desc>
    <defs></defs>
    <g id="Desktop" stroke="none" stroke-width="1" fill="none" fill-rule="evenodd">
        <g id="Cart" transform="translate(-242.000000, -491.000000)" fill="#FFFFFF" fill-rule="nonzero">
            <g id="Payment-methods" transform="translate(40.000000, 476.000000)">
                <g id="-Pay" transform="translate(150.000000, 0.000000)">
                    <path d="M58.6779197,16.9299581 C58.2496746,17.4381424 57.5644823,17.8378378 56.8792901,17.7807385 C56.7936411,17.0955463 57.1305273,16.3646745 57.5245128,15.9192996 C57.9527579,15.3996955 58.7007595,15.0285497 59.3117225,15 C59.3802418,15.708032 59.1004549,16.410354 58.6779197,16.9299581 Z M59.3003027,17.912067 C58.3067739,17.8549676 57.4559936,18.4773506 56.9877789,18.4773506 C56.5081443,18.4773506 55.7886925,17.9406167 55.0007214,17.9577465 C53.978643,17.9748763 53.0307937,18.5515797 52.5111896,19.4708793 C51.4377218,21.3151884 52.2314028,24.0388276 53.270611,25.5405405 C53.7787952,26.2828321 54.3840484,27.0993529 55.1834393,27.0708032 C55.9428607,27.0422535 56.2397774,26.5797488 57.153367,26.5797488 C58.0726666,26.5797488 58.3410335,27.0708032 59.1404245,27.0593833 C59.9683651,27.0422535 60.4879692,26.3170917 60.9961534,25.5748002 C61.5728569,24.7297297 61.8126742,23.913209 61.8240941,23.8675295 C61.8069643,23.8503997 60.2253122,23.2451466 60.2081824,21.4179673 C60.1910526,19.8877046 61.4586582,19.1625428 61.5157576,19.1168633 C60.8020156,18.0548154 59.6885783,17.9406167 59.3003027,17.912067 Z M65.0330777,15.8450704 L65.0330777,26.9737343 L66.7631881,26.9737343 L66.7631881,23.1709174 L69.155651,23.1709174 C71.3425562,23.1709174 72.8728188,21.6692044 72.8728188,19.499429 C72.8728188,17.3296536 71.3653959,15.8450704 69.2127503,15.8450704 L65.0330777,15.8450704 Z M66.7631881,17.3011039 L68.7559555,17.3011039 C70.2576685,17.3011039 71.1141588,18.1004949 71.1141588,19.5051389 C71.1141588,20.909783 70.2576685,21.7205938 68.7502456,21.7205938 L66.7631881,21.7205938 L66.7631881,17.3011039 Z M76.0247031,27.0593833 C77.1095908,27.0593833 78.1145394,26.5112295 78.5713343,25.6376094 L78.6055939,25.6376094 L78.6055939,26.9737343 L80.2043758,26.9737343 L80.2043758,21.4350971 C80.2043758,19.8306053 78.9196403,18.791397 76.9440027,18.791397 C75.1111135,18.791397 73.7521489,19.8420251 73.7007595,21.2809288 L75.2595718,21.2809288 C75.3909003,20.5957366 76.0247031,20.1446517 76.8926133,20.1446517 C77.9489513,20.1446517 78.5427846,20.6357061 78.5427846,21.5435858 L78.5427846,22.1602589 L76.384429,22.2915874 C74.3802418,22.411496 73.2953541,23.2337267 73.2953541,24.6612105 C73.301064,26.1001142 74.4202113,27.0593833 76.0247031,27.0593833 Z M76.4929178,25.7403883 C75.5736182,25.7403883 74.9854949,25.2950133 74.9854949,24.621241 C74.9854949,23.9189189 75.5507785,23.5135135 76.6299563,23.4507042 L78.5484945,23.3307956 L78.5484945,23.9588885 C78.5484945,24.9980967 77.6634546,25.7403883 76.4929178,25.7403883 Z M82.3456015,30 C84.0300324,30 84.8237134,29.3547773 85.5146156,27.4076894 L88.5465912,18.8998858 L86.7879311,18.8998858 L84.7551942,25.4720213 L84.7209346,25.4720213 L82.6881976,18.8998858 L80.8838581,18.8998858 L83.8073449,27.002284 L83.6474667,27.4933384 C83.3848097,28.326989 82.9565646,28.6524553 82.1914332,28.6524553 C82.0543948,28.6524553 81.7917378,28.6353255 81.683249,28.6239056 L81.683249,29.9600305 C81.7860278,29.9828702 82.214273,30 82.3456015,30 Z" id="Shape"></path>
                </g>
            </g>
        </g>
    </g>
</svg>
