<!--
Modified from original icon by Font Awesome

Font Awesome Free 5.1.0 by @fontawesome - https://fontawesome.com
License - https://fontawesome.com/license (Icons: CC BY 4.0, Fonts: SIL OFL 1.1, Code: MIT License)
-->
<svg width="21px" height="15px" viewBox="0 0 21 15" version="1.1" xmlns="http://www.w3.org/2000/svg" xmlns:xlink="http://www.w3.org/1999/xlink">
    <!-- Generator: Sketch 50.2 (55047) - http://www.bohemiancoding.com/sketch -->
    <title>Card icon</title>
    <desc>Created with Sketch.</desc>
    <defs></defs>
    <g id="Desktop" stroke="none" stroke-width="1" fill="none" fill-rule="evenodd">
        <g id="Cart" transform="translate(-109.000000, -546.000000)" fill-rule="nonzero">
            <g id="Payment-methods" transform="translate(40.540541, 476.000000)">
                <g id="Credit-card" transform="translate(0.000000, 55.000000)">
                    <g id="Content" transform="translate(68.918919, 13.000000)">
                        <path d="M17.9140776,2 L1.63225446,2 C0.729593991,2 0,2.71986607 0,3.60714286 L0,15.3928571 C0,16.2801339 0.729593991,17 1.63225446,17 L17.9140776,17 C18.8167381,17 19.546332,16.2801339 19.546332,15.3928571 L19.546332,3.60714286 C19.546332,2.71986607 18.8167381,2 17.9140776,2 Z M1.83586209,3.60714286 L17.71047,3.60714286 C17.8224542,3.60714286 17.9140776,3.69754464 17.9140776,3.80803571 L17.9140776,5.21428571 L1.63225446,5.21428571 L1.63225446,3.80803571 C1.63225446,3.69754464 1.7238779,3.60714286 1.83586209,3.60714286 Z M17.71047,15.3928571 L1.83586209,15.3928571 C1.7238779,15.3928571 1.63225446,15.3024554 1.63225446,15.1919643 L1.63225446,9.5 L17.9140776,9.5 L17.9140776,15.1919643 C17.9140776,15.3024554 17.8224542,15.3928571 17.71047,15.3928571 Z M6.51544402,12.0446429 L6.51544402,13.3839286 C6.51544402,13.6049107 6.33219715,13.7857143 6.10822876,13.7857143 L3.66493726,13.7857143 C3.44096887,13.7857143 3.25772201,13.6049107 3.25772201,13.3839286 L3.25772201,12.0446429 C3.25772201,11.8236607 3.44096887,11.6428571 3.66493726,11.6428571 L6.10822876,11.6428571 C6.33219715,11.6428571 6.51544402,11.8236607 6.51544402,12.0446429 Z M13.030888,12.0446429 L13.030888,13.3839286 C13.030888,13.6049107 12.8476412,13.7857143 12.6236728,13.7857143 L8.0085666,13.7857143 C7.78459821,13.7857143 7.60135135,13.6049107 7.60135135,13.3839286 L7.60135135,12.0446429 C7.60135135,11.8236607 7.78459821,11.6428571 8.0085666,11.6428571 L12.6236728,11.6428571 C12.8476412,11.6428571 13.030888,11.8236607 13.030888,12.0446429 Z" id="Card-icon"></path>
                    </g>
                </g>
            </g>
        </g>
    </g>
</svg>
