<?xml version="1.0" encoding="UTF-8"?>
<svg width="56px" height="15px" viewBox="0 0 56 15" version="1.1" xmlns="http://www.w3.org/2000/svg" xmlns:xlink="http://www.w3.org/1999/xlink">
    <!-- Generator: Sketch 50.2 (55047) - http://www.bohemiancoding.com/sketch -->
    <title>Paypal icon</title>
    <desc>Created with Sketch.</desc>
    <defs></defs>
    <g id="Desktop" stroke="none" stroke-width="1" fill="none" fill-rule="evenodd">
        <g id="Cart" transform="translate(-82.000000, -491.000000)" fill="#FFFFFF" fill-rule="nonzero">
            <g id="Payment-methods" transform="translate(40.000000, 476.000000)">
                <g id="Paypal">
                    <path d="M52.5249405,18.0589949 C52.5249405,21.2053897 50.6130687,23.0626366 47.4885239,23.0626366 C46.9641247,23.0626366 45.631277,22.789512 45.5220271,23.5761107 L45.030403,26.4821559 C44.997628,26.7880554 44.7245035,27.1048798 44.429529,27.1048798 L42.3537824,27.1048798 C42.1352828,27.1048798 41.9714081,26.8863802 42.004183,26.6678806 L43.79588,15.5134741 C43.81773,15.2184996 44.0908545,15 44.3639791,15 L48.7339718,15 C50.7550934,15 52.5249405,15.7647487 52.5249405,18.0589949 Z M47.3027992,17.4362709 L46.789325,17.4362709 C46.6254503,17.4362709 46.4615756,17.5455208 46.4397256,17.7312454 L45.9699514,20.6482156 L46.8657999,20.6154406 C48.0675479,20.6154406 48.9961714,20.4515659 49.214671,19.0640932 C49.4659456,17.6001457 48.5373221,17.4362709 47.3027992,17.4362709 Z M61.7237751,19.0203933 C61.9422748,19.0203933 62.1061495,19.2388929 62.0733746,19.4464676 L60.9590264,26.4712309 C60.9044015,26.7771304 60.6531269,27.0939548 60.3581524,27.0939548 L58.4790556,27.0939548 C58.238706,27.0939548 58.1294561,26.9082302 58.1294561,26.6569556 C58.1294561,26.4930808 58.184081,26.1434814 58.238706,25.9796067 C57.5504321,26.7443554 56.3268341,27.2796795 55.3435858,27.2796795 C53.2132143,27.2796795 51.8803665,25.8922068 51.8803665,23.7618354 C51.8803665,21.1726147 53.9233381,18.8237436 56.5999587,18.8237436 C57.637832,18.8237436 58.5555304,18.9876184 59.1891794,19.9162418 C59.2110293,19.6212673 59.2328793,19.0203933 59.6480286,19.0203933 L61.7237751,19.0203933 Z M58.8614299,22.7348871 C58.8614299,21.6642389 58.0966812,21.0415149 57.0806579,21.0415149 C55.7478101,21.0415149 54.7099368,22.1121631 54.7099368,23.4450109 C54.7099368,24.5156591 55.4528356,25.0837582 56.4579339,25.0837582 C57.8017067,25.0837582 58.8614299,24.0677349 58.8614299,22.7348871 Z M66.1483928,29.7159505 L73.1076062,19.5994173 C73.1622311,19.5447924 73.1622311,19.4901675 73.1622311,19.4136926 C73.1622311,19.227968 72.9983564,19.0313183 72.8126317,19.0313183 L70.7150352,19.0313183 C70.5293105,19.0313183 70.3326608,19.1405681 70.223411,19.3044428 L67.3282908,23.5651857 L66.1265428,19.4683176 C66.039143,19.227968 65.7987934,19.0313183 65.5256688,19.0313183 L63.4826972,19.0313183 C63.2969725,19.0313183 63.1330978,19.227968 63.1330978,19.4136926 C63.1330978,19.5447924 65.2634692,25.6190823 65.4491939,26.1981063 C65.1542194,26.6132556 63.2095727,29.3226511 63.2095727,29.6504006 C63.2095727,29.8470503 63.3734474,30 63.5591721,30 L65.6567686,30 C65.8534183,29.989075 66.039143,29.8798252 66.1483928,29.7159505 Z M83.5518888,18.0589949 C83.5518888,21.2053897 81.6400169,23.0626366 78.5373221,23.0626366 C78.012923,23.0626366 76.6800752,22.789512 76.5708254,23.5761107 L76.0792012,26.7443554 C76.0245763,26.9300801 75.8607016,27.0939548 75.6422019,27.0939548 L73.4025807,27.0939548 C73.195006,27.0939548 73.0311313,26.8754552 73.0529813,26.6569556 L74.8228283,15.5134741 C74.8556033,15.2184996 75.1287278,15 75.4237023,15 L79.7609201,15 C81.7820417,15 83.5518888,15.7647487 83.5518888,18.0589949 Z M78.3297475,17.4362709 L77.8381233,17.4362709 C77.6414736,17.4362709 77.5103738,17.5455208 77.4885239,17.7312454 L77.0296746,20.6482156 L77.9036732,20.6154406 C79.3239208,20.6154406 80.3071692,20.2876912 80.3071692,18.6489439 C80.2962442,17.4908958 79.2583709,17.4362709 78.3297475,17.4362709 Z M92.7507234,19.0203933 C92.9692231,19.0203933 93.1330978,19.2388929 93.1003228,19.4464676 L91.9859747,26.4712309 C91.9313498,26.7771304 91.6800752,27.0939548 91.3851007,27.0939548 L89.4950789,27.0939548 C89.2547293,27.0939548 89.1454794,26.9082302 89.1454794,26.6569556 C89.1454794,26.4930808 89.2219543,26.1434814 89.2547293,25.9796067 C88.5992304,26.7443554 87.3756324,27.2796795 86.3596091,27.2796795 C84.2292376,27.2796795 82.8963899,25.8922068 82.8963899,23.7618354 C82.8963899,21.1726147 84.9393615,18.8237436 87.615982,18.8237436 C88.6757052,18.8237436 89.6043287,18.9876184 90.2052027,19.9162418 C90.2379776,19.6212673 90.2598276,19.0203933 90.6749769,19.0203933 L92.7507234,19.0203933 Z M88.1076062,21.0415149 C86.7747584,21.0415149 85.7368851,22.1012382 85.7368851,23.4450109 C85.7368851,24.5047342 86.5016338,25.0837582 87.5067322,25.0837582 C88.81773,25.0837582 89.8774532,24.0786599 89.8774532,22.7348871 C89.8883782,21.6642389 89.1236295,21.0415149 88.1076062,21.0415149 Z M97.9400898,15.3823744 C97.9400898,15.1638747 97.7762151,15 97.5904904,15 L95.5693687,15 C95.405494,15 95.2416193,15.1310998 95.2197693,15.2949745 L93.4499223,26.6569556 L93.4171473,26.7115805 C93.4171473,26.9082302 93.581022,27.0939548 93.7995217,27.0939548 L95.6021437,27.0939548 C95.8752682,27.0939548 96.1483928,26.7771304 96.1702427,26.4712309 L97.9400898,15.4151493 L97.9400898,15.3823744 Z" id="Paypal-icon"></path>
                </g>
            </g>
        </g>
    </g>
</svg>
